<mxfile host="app.diagrams.net" modified="2022-11-30T11:40:41.353Z" agent="5.0 (Windows NT 10.0; Win64; x64) AppleWebKit/537.36 (KHTML, like Gecko) Chrome/107.0.0.0 Safari/537.36 Edg/107.0.1418.62" version="20.6.0" etag="sWKga0qYwX3CzwLPFMhs" type="github">
  <diagram id="BGQ7JyloTK_NOPKW9_Kn" name="第 1 页">
    <mxGraphModel dx="1038" dy="600" grid="0" gridSize="10" guides="1" tooltips="1" connect="1" arrows="1" fold="1" page="1" pageScale="1" pageWidth="827" pageHeight="1169" math="0" shadow="0">
      <root>
        <mxCell id="0" />
        <mxCell id="1" parent="0" />
        <mxCell id="6ZeRbEDOgOl59MVzhph7-2" value="RoleFunPage.html" style="rounded=0;whiteSpace=wrap;html=1;" vertex="1" parent="1">
          <mxGeometry x="154" y="178" width="85" height="45" as="geometry" />
        </mxCell>
        <mxCell id="6ZeRbEDOgOl59MVzhph7-3" value="" style="endArrow=classic;html=1;rounded=0;exitX=1;exitY=0.25;exitDx=0;exitDy=0;entryX=0;entryY=0.5;entryDx=0;entryDy=0;" edge="1" parent="1" source="6ZeRbEDOgOl59MVzhph7-2" target="6ZeRbEDOgOl59MVzhph7-5">
          <mxGeometry width="50" height="50" relative="1" as="geometry">
            <mxPoint x="386" y="336" as="sourcePoint" />
            <mxPoint x="303" y="201" as="targetPoint" />
          </mxGeometry>
        </mxCell>
        <mxCell id="6ZeRbEDOgOl59MVzhph7-4" value="ajax" style="text;html=1;strokeColor=none;fillColor=none;align=center;verticalAlign=middle;whiteSpace=wrap;rounded=0;" vertex="1" parent="1">
          <mxGeometry x="249" y="164" width="44" height="14" as="geometry" />
        </mxCell>
        <mxCell id="6ZeRbEDOgOl59MVzhph7-5" value="RoleFunController" style="rounded=0;whiteSpace=wrap;html=1;" vertex="1" parent="1">
          <mxGeometry x="303" y="174" width="85" height="45" as="geometry" />
        </mxCell>
        <mxCell id="6ZeRbEDOgOl59MVzhph7-7" value="" style="endArrow=classic;html=1;rounded=0;exitX=1;exitY=0.5;exitDx=0;exitDy=0;" edge="1" parent="1">
          <mxGeometry width="50" height="50" relative="1" as="geometry">
            <mxPoint x="388" y="200" as="sourcePoint" />
            <mxPoint x="452" y="200.5" as="targetPoint" />
          </mxGeometry>
        </mxCell>
        <mxCell id="6ZeRbEDOgOl59MVzhph7-8" value="RoleFunService" style="rounded=0;whiteSpace=wrap;html=1;" vertex="1" parent="1">
          <mxGeometry x="451" y="174" width="85" height="45" as="geometry" />
        </mxCell>
        <mxCell id="6ZeRbEDOgOl59MVzhph7-9" value="RoleFunDao" style="rounded=0;whiteSpace=wrap;html=1;" vertex="1" parent="1">
          <mxGeometry x="599" y="174" width="85" height="45" as="geometry" />
        </mxCell>
        <mxCell id="6ZeRbEDOgOl59MVzhph7-10" value="" style="endArrow=classic;html=1;rounded=0;exitX=1;exitY=0.5;exitDx=0;exitDy=0;" edge="1" parent="1">
          <mxGeometry width="50" height="50" relative="1" as="geometry">
            <mxPoint x="536" y="200" as="sourcePoint" />
            <mxPoint x="600" y="200.5" as="targetPoint" />
          </mxGeometry>
        </mxCell>
        <mxCell id="6ZeRbEDOgOl59MVzhph7-12" value="RoleFun" style="rounded=0;whiteSpace=wrap;html=1;" vertex="1" parent="1">
          <mxGeometry x="440" y="291" width="85" height="45" as="geometry" />
        </mxCell>
        <mxCell id="6ZeRbEDOgOl59MVzhph7-13" value="" style="endArrow=classic;html=1;rounded=0;exitX=0.5;exitY=1;exitDx=0;exitDy=0;entryX=0.25;entryY=0;entryDx=0;entryDy=0;" edge="1" parent="1" source="6ZeRbEDOgOl59MVzhph7-5" target="6ZeRbEDOgOl59MVzhph7-12">
          <mxGeometry width="50" height="50" relative="1" as="geometry">
            <mxPoint x="386" y="336" as="sourcePoint" />
            <mxPoint x="436" y="286" as="targetPoint" />
          </mxGeometry>
        </mxCell>
        <mxCell id="6ZeRbEDOgOl59MVzhph7-14" value="" style="endArrow=classic;html=1;rounded=0;exitX=0.5;exitY=1;exitDx=0;exitDy=0;entryX=0.5;entryY=0;entryDx=0;entryDy=0;" edge="1" parent="1" source="6ZeRbEDOgOl59MVzhph7-8" target="6ZeRbEDOgOl59MVzhph7-12">
          <mxGeometry width="50" height="50" relative="1" as="geometry">
            <mxPoint x="386" y="336" as="sourcePoint" />
            <mxPoint x="436" y="286" as="targetPoint" />
          </mxGeometry>
        </mxCell>
        <mxCell id="6ZeRbEDOgOl59MVzhph7-15" value="" style="endArrow=classic;html=1;rounded=0;exitX=0.25;exitY=1;exitDx=0;exitDy=0;entryX=0.75;entryY=0;entryDx=0;entryDy=0;" edge="1" parent="1" source="6ZeRbEDOgOl59MVzhph7-9" target="6ZeRbEDOgOl59MVzhph7-12">
          <mxGeometry width="50" height="50" relative="1" as="geometry">
            <mxPoint x="386" y="336" as="sourcePoint" />
            <mxPoint x="436" y="286" as="targetPoint" />
          </mxGeometry>
        </mxCell>
        <mxCell id="6ZeRbEDOgOl59MVzhph7-16" value="" style="endArrow=classic;html=1;rounded=0;exitX=0;exitY=1;exitDx=0;exitDy=0;entryX=1;entryY=0.75;entryDx=0;entryDy=0;" edge="1" parent="1" source="6ZeRbEDOgOl59MVzhph7-5" target="6ZeRbEDOgOl59MVzhph7-2">
          <mxGeometry width="50" height="50" relative="1" as="geometry">
            <mxPoint x="386" y="336" as="sourcePoint" />
            <mxPoint x="289" y="282" as="targetPoint" />
          </mxGeometry>
        </mxCell>
        <mxCell id="6ZeRbEDOgOl59MVzhph7-17" value="" style="endArrow=classic;html=1;rounded=0;exitX=0.25;exitY=1;exitDx=0;exitDy=0;" edge="1" parent="1" source="6ZeRbEDOgOl59MVzhph7-5">
          <mxGeometry width="50" height="50" relative="1" as="geometry">
            <mxPoint x="313" y="229" as="sourcePoint" />
            <mxPoint x="292" y="287" as="targetPoint" />
          </mxGeometry>
        </mxCell>
        <mxCell id="6ZeRbEDOgOl59MVzhph7-19" value="JSON格式文本" style="rounded=0;whiteSpace=wrap;html=1;" vertex="1" parent="1">
          <mxGeometry x="239" y="293" width="85" height="45" as="geometry" />
        </mxCell>
        <mxCell id="6ZeRbEDOgOl59MVzhph7-20" value="" style="endArrow=classic;html=1;rounded=0;exitX=0.5;exitY=0;exitDx=0;exitDy=0;" edge="1" parent="1" source="6ZeRbEDOgOl59MVzhph7-19">
          <mxGeometry width="50" height="50" relative="1" as="geometry">
            <mxPoint x="386" y="336" as="sourcePoint" />
            <mxPoint x="262" y="245" as="targetPoint" />
          </mxGeometry>
        </mxCell>
        <mxCell id="6ZeRbEDOgOl59MVzhph7-21" value="HttpResponse" style="text;html=1;strokeColor=none;fillColor=none;align=center;verticalAlign=middle;whiteSpace=wrap;rounded=0;" vertex="1" parent="1">
          <mxGeometry x="239" y="225" width="44" height="14" as="geometry" />
        </mxCell>
      </root>
    </mxGraphModel>
  </diagram>
</mxfile>
